<svg width="80" height="238" viewBox="0 0 80 238" fill="none" xmlns="http://www.w3.org/2000/svg">
<g clip-path="url(#clip0_24_2)">
<rect width="80" height="238" fill="white"/>
<rect width="80" height="10" rx="2" fill="black"/>
<rect y="12" width="80" height="10" rx="2" fill="black"/>
<rect y="24" width="80" height="10" rx="2" fill="black"/>
<rect y="36" width="80" height="10" rx="2" fill="black"/>
<rect y="48" width="80" height="10" rx="2" fill="black"/>
<rect y="60" width="80" height="10" rx="2" fill="black"/>
<rect y="72" width="80" height="10" rx="2" fill="black"/>
<rect y="84" width="80" height="10" rx="2" fill="black"/>
<rect y="96" width="80" height="10" rx="2" fill="black"/>
<rect y="108" width="80" height="10" rx="2" fill="black"/>
<rect y="120" width="80" height="10" rx="2" fill="black"/>
<rect y="132" width="80" height="10" rx="2" fill="black"/>
<rect y="144" width="80" height="10" rx="2" fill="black"/>
<rect y="156" width="80" height="10" rx="2" fill="black"/>
<rect y="168" width="80" height="10" rx="2" fill="black"/>
<rect y="180" width="80" height="10" rx="2" fill="black"/>
<rect y="192" width="80" height="10" rx="2" fill="black"/>
<rect y="204" width="80" height="10" rx="2" fill="black"/>
<rect y="216" width="80" height="10" rx="2" fill="black"/>
<rect y="228" width="80" height="10" rx="2" fill="black"/>
</g>
<defs>
<clipPath id="clip0_24_2">
<rect width="80" height="238" fill="white"/>
</clipPath>
</defs>
</svg>
